<!DOCTYPE svg PUBLIC "-//W3C//DTD SVG 1.1//EN" "http://www.w3.org/Graphics/SVG/1.1/DTD/svg11.dtd">
<!-- Uploaded to: SVG Repo, www.svgrepo.com, Transformed by: SVG Repo Mixer Tools -->
<svg fill="#000000" width="800px" height="800px" viewBox="0 0 24 24" id="push-up-bar" data-name="Flat Color" xmlns="http://www.w3.org/2000/svg" class="icon flat-color">
<g id="SVGRepo_bgCarrier" stroke-width="0"/>
<g id="SVGRepo_tracerCarrier" stroke-linecap="round" stroke-linejoin="round"/>
<g id="SVGRepo_iconCarrier">
<path id="primary" d="M19,17a1,1,0,0,1-1-1V10a1,1,0,0,0-1-1H7a1,1,0,0,0-1,1v6a1,1,0,0,1-2,0V10A3,3,0,0,1,7,7H17a3,3,0,0,1,3,3v6A1,1,0,0,1,19,17Z" style="fill: #eeeeee;"/>
<path id="secondary" d="M21,17H17a1,1,0,0,1,0-2h4a1,1,0,0,1,0,2ZM7,17H3a1,1,0,0,1,0-2H7a1,1,0,0,1,0,2Z" style="fill: #15d404;"/>
<path id="secondary-2" data-name="secondary" d="M16,9.5H8a1.5,1.5,0,0,1,0-3h8a1.5,1.5,0,0,1,0,3Z" style="fill: #15d404;"/>
</g>
</svg>