<svg version="1.2" xmlns="http://www.w3.org/2000/svg" viewBox="0 0 512 512" width="512" height="512"><style>.a{fill:#f00}.b{fill:#eee}</style><path class="a" d="m328 252.6h-26.4c-7 0-12.7-5.6-12.7-12.6v-75c0-8.7-7-15.8-15.7-15.8h-34.4c-8.7 0-15.7 7.1-15.7 15.8v75c0 7-5.7 12.7-12.7 12.7h-26.4c-4.4 0-7.6 1.4-8.9 4.2-1.4 2.7-0.6 6.1 2 9.6l69.1 91c2.5 3.4 6 5.3 9.8 5.3 3.8 0 7.3-1.9 9.8-5.3l69.1-91c2.6-3.5 3.4-6.9 2-9.6-1.3-2.8-4.5-4.3-8.9-4.3z"/><path fill-rule="evenodd" class="b" d="m256 0c141.6 0 256 114.4 256 256 0 141.6-114.4 256-256 256-141.6 0-256-114.4-256-256 0-141.6 114.4-256 256-256zm-189.2 256c0 104.6 84.6 189.2 189.2 189.2 104.6 0 189.2-84.6 189.2-189.2 0-104.6-84.6-189.2-189.2-189.2-104.6 0-189.2 84.6-189.2 189.2z"/></svg>