<svg version="1.2" xmlns="http://www.w3.org/2000/svg" viewBox="0 0 512 512" width="512" height="512"><style>.a{fill:#f00}.b{fill:#eee}</style><path class="a" d="m184 259.4h26.4c7 0 12.7 5.6 12.7 12.6v75c0 8.7 7 15.8 15.7 15.8h34.4c8.7 0 15.7-7.1 15.7-15.8v-75c0-7 5.7-12.6 12.7-12.6h26.4c4.4 0 7.6-1.5 8.9-4.3 1.4-2.7 0.6-6.1-2-9.6l-69.1-91c-2.5-3.4-6-5.3-9.8-5.3-3.8 0-7.3 1.9-9.8 5.3l-69.1 91c-2.6 3.5-3.4 6.9-2 9.6 1.3 2.8 4.5 4.3 8.9 4.3z"/><path fill-rule="evenodd" class="b" d="m512 256c0 141.2-114.8 256-256 256-141.2 0-256-114.8-256-256 0-141.2 114.8-256 256-256 141.2 0 256 114.8 256 256zm-445.2 0c0 104.3 84.9 189.2 189.2 189.2 104.3 0 189.2-84.9 189.2-189.2 0-104.3-84.9-189.2-189.2-189.2-104.3 0-189.2 84.9-189.2 189.2z"/></svg>