<svg version="1.2" xmlns="http://www.w3.org/2000/svg" viewBox="0 0 48 48" width="48" height="48"><style>.a{fill:none;stroke:#eee;stroke-linecap:round;stroke-linejoin:round}</style><path class="a" d="m24 20.9c-1.6 0-2.9-1.3-2.9-2.9 0-1.6 1.3-2.9 2.9-2.9 1.6 0 2.9 1.3 2.9 2.9 0 1.6-1.3 2.9-2.9 2.9z"/><path class="a" d="m19.3 41.8l4.7-10.7 4.7 10.7"/><path class="a" d="m24 31.1v-6.7"/><path class="a" d="m32.6 15.5l-8.6 8.9-8.6-8.9"/><path class="a" d="m12.8 13.6h22.4"/><path class="a" d="m36.7 8.7v9.7"/><path class="a" d="m11.4 8.7v9.7"/><path class="a" d="m38.2 8.7v9.7"/><path class="a" d="m39.7 10.9v5.3"/><path class="a" d="m9.9 8.7v9.7"/><path class="a" d="m8.4 10.9v5.3"/></svg>